# xmcd
#
# Track frame offsets: 
#        150
#        21396
#        37431
#        48903
#        65471
#        84600
#        97590
#        112710
#        128757
#        143242
#        154158
#        174026
#
# Disc length: 2384 seconds
#
# Revision: 0
# Processed by: cddbd v1.5.2PL0 Copyright (c) Steve Scherf et al.
# Submitted via: ExactAudioCopy v0.95a4
#
DISCID=93094e0c
DTITLE=Ben Stevens - Reservation Blues
DYEAR=1997
DGENRE=Blues
TTITLE0=Reservation Blues
TTITLE1=How Long
TTITLE2=New York City Blues
TTITLE3=99 1/2 Won't Do
TTITLE4=Phantom Train
TTITLE5=Black Moon Night
TTITLE6=Driving Fast Behind A Chocolate Moon
TTITLE7=Grandfather's Banjo
TTITLE8=Ain't Goin To California
TTITLE9=Sherman's Rag
TTITLE10=Hellhound On My Trail
TTITLE11=My Brother Haunt
EXTD=
EXTT0=
EXTT1=
EXTT2=
EXTT3=
EXTT4=
EXTT5=
EXTT6=
EXTT7=
EXTT8=
EXTT9=
EXTT10=
EXTT11=
PLAYORDER=
